{
    "patcher": {
        "fileversion": 1,
        "appversion": {
            "major": 9,
            "minor": 1,
            "revision": 1,
            "architecture": "x64",
            "modernui": 1
        },
        "classnamespace": "box",
        "rect": [ 34.0, 77.0, 1426.0, 775.0 ],
        "boxes": [
            {
                "box": {
                    "id": "obj-7",
                    "maxclass": "newobj",
                    "numinlets": 0,
                    "numoutlets": 1,
                    "outlettype": [ "" ],
                    "patcher": {
                        "fileversion": 1,
                        "appversion": {
                            "major": 9,
                            "minor": 1,
                            "revision": 1,
                            "architecture": "x64",
                            "modernui": 1
                        },
                        "classnamespace": "box",
                        "rect": [ 134.0, 134.0, 1026.0, 775.0 ],
                        "boxes": [
                            {
                                "box": {
                                    "id": "obj-1",
                                    "maxclass": "newobj",
                                    "numinlets": 1,
                                    "numoutlets": 1,
                                    "outlettype": [ "bang" ],
                                    "patching_rect": [ 12.0, 6.0, 63.0, 22.0 ],
                                    "text": "closebang"
                                }
                            },
                            {
                                "box": {
                                    "id": "obj-34",
                                    "maxclass": "newobj",
                                    "numinlets": 1,
                                    "numoutlets": 1,
                                    "outlettype": [ "" ],
                                    "patching_rect": [ 12.0, 98.0, 151.0, 22.0 ],
                                    "text": "udpreceive 127.0.0.1 8001"
                                }
                            },
                            {
                                "box": {
                                    "id": "obj-20",
                                    "maxclass": "newobj",
                                    "numinlets": 1,
                                    "numoutlets": 1,
                                    "outlettype": [ "bang" ],
                                    "patching_rect": [ 12.0, 34.0, 58.0, 22.0 ],
                                    "text": "loadbang"
                                }
                            },
                            {
                                "box": {
                                    "id": "obj-19",
                                    "maxclass": "message",
                                    "numinlets": 2,
                                    "numoutlets": 1,
                                    "outlettype": [ "" ],
                                    "patching_rect": [ 12.0, 63.0, 59.0, 22.0 ],
                                    "text": "port 8001"
                                }
                            },
                            {
                                "box": {
                                    "id": "obj-32",
                                    "maxclass": "newobj",
                                    "numinlets": 2,
                                    "numoutlets": 2,
                                    "outlettype": [ "", "" ],
                                    "patching_rect": [ 12.0, 133.0, 65.0, 22.0 ],
                                    "text": "route OUT"
                                }
                            },
                            {
                                "box": {
                                    "id": "obj-30",
                                    "maxclass": "newobj",
                                    "numinlets": 1,
                                    "numoutlets": 1,
                                    "outlettype": [ "" ],
                                    "patching_rect": [ 12.0, 200.0, 65.0, 22.0 ],
                                    "text": "append 10"
                                }
                            },
                            {
                                "box": {
                                    "id": "obj-28",
                                    "maxclass": "newobj",
                                    "numinlets": 3,
                                    "numoutlets": 1,
                                    "outlettype": [ "list" ],
                                    "patching_rect": [ 12.0, 167.0, 40.0, 22.0 ],
                                    "text": "atoi"
                                }
                            },
                            {
                                "box": {
                                    "comment": "",
                                    "id": "obj-6",
                                    "index": 1,
                                    "maxclass": "outlet",
                                    "numinlets": 1,
                                    "numoutlets": 0,
                                    "patching_rect": [ 12.0, 237.0, 30.0, 30.0 ]
                                }
                            }
                        ],
                        "lines": [
                            {
                                "patchline": {
                                    "destination": [ "obj-20", 0 ],
                                    "source": [ "obj-1", 0 ]
                                }
                            },
                            {
                                "patchline": {
                                    "destination": [ "obj-34", 0 ],
                                    "source": [ "obj-19", 0 ]
                                }
                            },
                            {
                                "patchline": {
                                    "destination": [ "obj-19", 0 ],
                                    "source": [ "obj-20", 0 ]
                                }
                            },
                            {
                                "patchline": {
                                    "destination": [ "obj-30", 0 ],
                                    "source": [ "obj-28", 0 ]
                                }
                            },
                            {
                                "patchline": {
                                    "destination": [ "obj-6", 0 ],
                                    "source": [ "obj-30", 0 ]
                                }
                            },
                            {
                                "patchline": {
                                    "destination": [ "obj-28", 0 ],
                                    "source": [ "obj-32", 0 ]
                                }
                            },
                            {
                                "patchline": {
                                    "destination": [ "obj-32", 0 ],
                                    "source": [ "obj-34", 0 ]
                                }
                            }
                        ]
                    },
                    "patching_rect": [ 162.0, 90.0, 111.0, 22.0 ],
                    "text": "p outputProcessing"
                }
            },
            {
                "box": {
                    "id": "obj-4",
                    "maxclass": "newobj",
                    "numinlets": 1,
                    "numoutlets": 0,
                    "patcher": {
                        "fileversion": 1,
                        "appversion": {
                            "major": 9,
                            "minor": 1,
                            "revision": 1,
                            "architecture": "x64",
                            "modernui": 1
                        },
                        "classnamespace": "box",
                        "rect": [ 34.0, 77.0, 1426.0, 775.0 ],
                        "boxes": [
                            {
                                "box": {
                                    "id": "obj-1",
                                    "maxclass": "newobj",
                                    "numinlets": 1,
                                    "numoutlets": 1,
                                    "outlettype": [ "" ],
                                    "patching_rect": [ 17.0, 206.0, 68.0, 22.0 ],
                                    "text": "prepend IN"
                                }
                            },
                            {
                                "box": {
                                    "id": "obj-20",
                                    "maxclass": "newobj",
                                    "numinlets": 1,
                                    "numoutlets": 1,
                                    "outlettype": [ "bang" ],
                                    "patching_rect": [ 109.0, 177.0, 58.0, 22.0 ],
                                    "text": "loadbang"
                                }
                            },
                            {
                                "box": {
                                    "id": "obj-19",
                                    "maxclass": "message",
                                    "numinlets": 2,
                                    "numoutlets": 1,
                                    "outlettype": [ "" ],
                                    "patching_rect": [ 109.0, 206.0, 59.0, 22.0 ],
                                    "text": "port 8000"
                                }
                            },
                            {
                                "box": {
                                    "id": "obj-6",
                                    "maxclass": "newobj",
                                    "numinlets": 1,
                                    "numoutlets": 0,
                                    "patching_rect": [ 17.0, 266.0, 138.0, 22.0 ],
                                    "text": "udpsend 127.0.0.1 8000"
                                }
                            },
                            {
                                "box": {
                                    "id": "obj-10",
                                    "maxclass": "newobj",
                                    "numinlets": 1,
                                    "numoutlets": 1,
                                    "outlettype": [ "" ],
                                    "patching_rect": [ 17.0, 175.0, 71.0, 22.0 ],
                                    "text": "fromsymbol"
                                }
                            },
                            {
                                "box": {
                                    "id": "obj-9",
                                    "maxclass": "newobj",
                                    "numinlets": 3,
                                    "numoutlets": 1,
                                    "outlettype": [ "int" ],
                                    "patching_rect": [ 17.0, 146.0, 40.0, 22.0 ],
                                    "text": "itoa"
                                }
                            },
                            {
                                "box": {
                                    "id": "obj-8",
                                    "maxclass": "newobj",
                                    "numinlets": 2,
                                    "numoutlets": 2,
                                    "outlettype": [ "", "" ],
                                    "patching_rect": [ 17.0, 117.0, 68.0, 22.0 ],
                                    "text": "zl.group 20"
                                }
                            },
                            {
                                "box": {
                                    "id": "obj-7",
                                    "maxclass": "newobj",
                                    "numinlets": 3,
                                    "numoutlets": 3,
                                    "outlettype": [ "bang", "bang", "" ],
                                    "patching_rect": [ 17.0, 76.0, 57.0, 22.0 ],
                                    "text": "sel 13 10"
                                }
                            },
                            {
                                "box": {
                                    "comment": "",
                                    "id": "obj-3",
                                    "index": 1,
                                    "maxclass": "inlet",
                                    "numinlets": 0,
                                    "numoutlets": 1,
                                    "outlettype": [ "int" ],
                                    "patching_rect": [ 17.0, 16.0, 30.0, 30.0 ]
                                }
                            }
                        ],
                        "lines": [
                            {
                                "patchline": {
                                    "destination": [ "obj-6", 0 ],
                                    "source": [ "obj-1", 0 ]
                                }
                            },
                            {
                                "patchline": {
                                    "destination": [ "obj-1", 0 ],
                                    "source": [ "obj-10", 0 ]
                                }
                            },
                            {
                                "patchline": {
                                    "destination": [ "obj-6", 0 ],
                                    "source": [ "obj-19", 0 ]
                                }
                            },
                            {
                                "patchline": {
                                    "destination": [ "obj-19", 0 ],
                                    "source": [ "obj-20", 0 ]
                                }
                            },
                            {
                                "patchline": {
                                    "destination": [ "obj-7", 0 ],
                                    "source": [ "obj-3", 0 ]
                                }
                            },
                            {
                                "patchline": {
                                    "destination": [ "obj-8", 0 ],
                                    "midpoints": [ 64.5, 108.0, 26.5, 108.0 ],
                                    "source": [ "obj-7", 2 ]
                                }
                            },
                            {
                                "patchline": {
                                    "destination": [ "obj-8", 0 ],
                                    "source": [ "obj-7", 0 ]
                                }
                            },
                            {
                                "patchline": {
                                    "destination": [ "obj-9", 0 ],
                                    "source": [ "obj-8", 0 ]
                                }
                            },
                            {
                                "patchline": {
                                    "destination": [ "obj-10", 0 ],
                                    "source": [ "obj-9", 0 ]
                                }
                            }
                        ]
                    },
                    "patching_rect": [ 20.0, 187.0, 104.0, 22.0 ],
                    "text": "p inputProcessing"
                }
            },
            {
                "box": {
                    "id": "obj-19",
                    "maxclass": "message",
                    "numinlets": 2,
                    "numoutlets": 1,
                    "outlettype": [ "" ],
                    "patching_rect": [ 106.0, 90.0, 37.0, 22.0 ],
                    "text": "poll 0"
                }
            },
            {
                "box": {
                    "id": "obj-35",
                    "maxclass": "message",
                    "numinlets": 2,
                    "numoutlets": 1,
                    "outlettype": [ "" ],
                    "patching_rect": [ 62.0, 90.0, 37.0, 22.0 ],
                    "text": "poll 1"
                }
            },
            {
                "box": {
                    "id": "obj-20",
                    "maxclass": "newobj",
                    "numinlets": 1,
                    "numoutlets": 2,
                    "outlettype": [ "bang", "bang" ],
                    "patching_rect": [ 20.0, 43.0, 32.0, 22.0 ],
                    "text": "t b b"
                }
            },
            {
                "box": {
                    "id": "obj-18",
                    "maxclass": "newobj",
                    "numinlets": 1,
                    "numoutlets": 1,
                    "outlettype": [ "bang" ],
                    "patching_rect": [ 20.0, 12.0, 58.0, 22.0 ],
                    "text": "loadbang"
                }
            },
            {
                "box": {
                    "id": "obj-5",
                    "maxclass": "message",
                    "numinlets": 2,
                    "numoutlets": 1,
                    "outlettype": [ "" ],
                    "patching_rect": [ 20.0, 90.0, 36.0, 22.0 ],
                    "text": "port f"
                }
            },
            {
                "box": {
                    "id": "obj-17",
                    "maxclass": "newobj",
                    "numinlets": 1,
                    "numoutlets": 2,
                    "outlettype": [ "int", "" ],
                    "patching_rect": [ 20.0, 148.0, 235.0, 22.0 ],
                    "text": "serial COM6 @baud 115200 @autoopen 1"
                }
            }
        ],
        "lines": [
            {
                "patchline": {
                    "destination": [ "obj-4", 0 ],
                    "source": [ "obj-17", 0 ]
                }
            },
            {
                "patchline": {
                    "destination": [ "obj-20", 0 ],
                    "source": [ "obj-18", 0 ]
                }
            },
            {
                "patchline": {
                    "destination": [ "obj-17", 0 ],
                    "midpoints": [ 115.5, 135.0, 29.5, 135.0 ],
                    "source": [ "obj-19", 0 ]
                }
            },
            {
                "patchline": {
                    "destination": [ "obj-35", 0 ],
                    "midpoints": [ 42.5, 76.0, 71.5, 76.0 ],
                    "source": [ "obj-20", 1 ]
                }
            },
            {
                "patchline": {
                    "destination": [ "obj-5", 0 ],
                    "source": [ "obj-20", 0 ]
                }
            },
            {
                "patchline": {
                    "destination": [ "obj-17", 0 ],
                    "midpoints": [ 71.5, 135.0, 29.5, 135.0 ],
                    "source": [ "obj-35", 0 ]
                }
            },
            {
                "patchline": {
                    "destination": [ "obj-17", 0 ],
                    "midpoints": [ 29.5, 114.0, 29.5, 114.0 ],
                    "source": [ "obj-5", 0 ]
                }
            },
            {
                "patchline": {
                    "destination": [ "obj-17", 0 ],
                    "midpoints": [ 171.5, 135.0, 29.5, 135.0 ],
                    "source": [ "obj-7", 0 ]
                }
            }
        ],
        "autosave": 0
    }
}